<mxfile host="app.diagrams.net" modified="2023-02-22T12:15:11.611Z" agent="5.0 (Macintosh; Intel Mac OS X 10_15_7) AppleWebKit/537.36 (KHTML, like Gecko) Chrome/109.0.0.0 Safari/537.36" etag="9fldD_d7sTl_vThZ-4AR" version="20.8.20" type="github">
  <diagram name="Seite-1" id="RJvYFIgA1jTDfQoryFv9">
    <mxGraphModel dx="635" dy="438" grid="1" gridSize="10" guides="1" tooltips="1" connect="1" arrows="1" fold="1" page="1" pageScale="1" pageWidth="827" pageHeight="1169" math="0" shadow="0">
      <root>
        <mxCell id="0" />
        <mxCell id="1" parent="0" />
        <mxCell id="w9BvsOtMLpVSpGhDAIVH-1" value="" style="rounded=0;whiteSpace=wrap;html=1;" vertex="1" parent="1">
          <mxGeometry x="200" y="150" width="520" height="150" as="geometry" />
        </mxCell>
        <mxCell id="w9BvsOtMLpVSpGhDAIVH-2" value="&lt;font style=&quot;font-size: 12px;&quot;&gt;&lt;font style=&quot;background-color: initial;&quot;&gt;1.&amp;nbsp;&lt;br&gt;&lt;/font&gt;&lt;span style=&quot;background-color: initial;&quot;&gt;manual recordings &lt;br&gt;of expert knowledge&lt;/span&gt;&lt;br&gt;&lt;span style=&quot;background-color: initial;&quot;&gt;(tacit knowledge)&lt;br&gt;&lt;br&gt;&lt;/span&gt;&lt;/font&gt;" style="rounded=1;whiteSpace=wrap;html=1;align=center;" vertex="1" parent="1">
          <mxGeometry x="210" y="180" width="130" height="90" as="geometry" />
        </mxCell>
        <mxCell id="w9BvsOtMLpVSpGhDAIVH-4" value="&lt;font style=&quot;font-size: 12px;&quot;&gt;&lt;span style=&quot;background-color: initial;&quot;&gt;2.&amp;nbsp;&lt;br&gt;&lt;/span&gt;&lt;span style=&quot;background-color: initial;&quot;&gt;definition of the components of the ontology from expert knowledge&lt;/span&gt;&lt;/font&gt;&lt;span style=&quot;background-color: initial;&quot;&gt;&lt;br&gt;&lt;/span&gt;" style="rounded=1;whiteSpace=wrap;html=1;align=center;" vertex="1" parent="1">
          <mxGeometry x="385" y="180" width="140" height="90" as="geometry" />
        </mxCell>
        <mxCell id="w9BvsOtMLpVSpGhDAIVH-7" value="&lt;p style=&quot;border-color: var(--border-color); margin-top: 0pt; margin-bottom: 0pt; margin-left: 0in; direction: ltr; unicode-bidi: embed; word-break: normal;&quot;&gt;&lt;font style=&quot;font-size: 12px;&quot;&gt;3.&amp;nbsp;&lt;/font&gt;&lt;/p&gt;&lt;p style=&quot;border-color: var(--border-color); margin-top: 0pt; margin-bottom: 0pt; margin-left: 0in; direction: ltr; unicode-bidi: embed; word-break: normal;&quot;&gt;&lt;font style=&quot;font-size: 12px;&quot;&gt;derive&amp;nbsp;&lt;/font&gt;&lt;span style=&quot;background-color: initial;&quot;&gt;query rules&amp;nbsp;&lt;/span&gt;&lt;font style=&quot;background-color: initial; border-color: var(--border-color);&quot;&gt;from&lt;/font&gt;&lt;span style=&quot;background-color: initial;&quot;&gt;&amp;nbsp;expert&lt;/span&gt;&lt;/p&gt;&lt;p style=&quot;border-color: var(--border-color); margin-top: 0pt; margin-bottom: 0pt; margin-left: 0in; direction: ltr; unicode-bidi: embed; word-break: normal;&quot;&gt;&lt;font style=&quot;font-size: 12px;&quot;&gt;knowledge&lt;/font&gt;&lt;/p&gt;&lt;p style=&quot;border-color: var(--border-color); margin-top: 0pt; margin-bottom: 0pt; margin-left: 0in; direction: ltr; unicode-bidi: embed; word-break: normal;&quot;&gt;&lt;font style=&quot;font-size: 12px;&quot;&gt;&lt;br&gt;&lt;/font&gt;&lt;/p&gt;" style="rounded=1;whiteSpace=wrap;html=1;align=center;" vertex="1" parent="1">
          <mxGeometry x="570" y="180" width="140" height="90" as="geometry" />
        </mxCell>
      </root>
    </mxGraphModel>
  </diagram>
</mxfile>
